<?xml version="1.0" encoding="UTF-8" standalone="no"?>
<svg
   xmlns:dc="http://purl.org/dc/elements/1.1/"
   xmlns:cc="http://creativecommons.org/ns#"
   xmlns:rdf="http://www.w3.org/1999/02/22-rdf-syntax-ns#"
   xmlns:svg="http://www.w3.org/2000/svg"
   xmlns="http://www.w3.org/2000/svg"
   xmlns:xlink="http://www.w3.org/1999/xlink"
   xmlns:sodipodi="http://sodipodi.sourceforge.net/DTD/sodipodi-0.dtd"
   xmlns:inkscape="http://www.inkscape.org/namespaces/inkscape"
   id="svg2424"
   height="70"
   width="70"
   version="1.0"
   sodipodi:docname="blackarch-logo-red-scalable.svg"
   inkscape:version="0.92.4 5da689c313, 2019-01-14">
  <sodipodi:namedview
     pagecolor="#ffffff"
     bordercolor="#666666"
     borderopacity="1"
     objecttolerance="10"
     gridtolerance="10"
     guidetolerance="10"
     inkscape:pageopacity="0"
     inkscape:pageshadow="2"
     inkscape:window-width="1920"
     inkscape:window-height="1016"
     id="namedview3805"
     showgrid="false"
     inkscape:zoom="4.0776491"
     inkscape:cx="117.99165"
     inkscape:cy="26.978183"
     inkscape:window-x="0"
     inkscape:window-y="27"
     inkscape:window-maximized="1"
     inkscape:current-layer="svg2424" />
  <metadata
     id="metadata919">
    <rdf:RDF>
      <cc:Work
         rdf:about="">
        <dc:format>image/svg+xml</dc:format>
        <dc:type
           rdf:resource="http://purl.org/dc/dcmitype/StillImage" />
        <dc:title></dc:title>
      </cc:Work>
    </rdf:RDF>
  </metadata>
  <defs
     id="defs2426">
    <linearGradient
       gradientTransform="translate(287,-83)"
       gradientUnits="userSpaceOnUse"
       id="path1082_2_"
       y2="129.3468"
       x2="112.49853"
       y1="6.1372099"
       x1="112.49854">
      <stop
         offset="0"
         style="stop-color:#ffffff;stop-opacity:0"
         id="stop193" />
      <stop
         offset="1"
         style="stop-color:#ffffff;stop-opacity:0.27450982"
         id="stop195" />
      <midPointStop
         id="midPointStop197"
         style="stop-color:#FFFFFF"
         offset="0" />
      <midPointStop
         id="midPointStop199"
         style="stop-color:#FFFFFF"
         offset="0.5" />
      <midPointStop
         id="midPointStop201"
         style="stop-color:#000000"
         offset="1" />
    </linearGradient>
    <linearGradient
       gradientTransform="matrix(-0.3937741,0,0,0.393752,357.51969,122.00151)"
       gradientUnits="userSpaceOnUse"
       xlink:href="#path1082_2_"
       id="linearGradient2544"
       y2="303.14029"
       x2="606.91248"
       y1="104.50665"
       x1="541.33502" />
    <linearGradient
       id="linearGradient3388">
      <stop
         offset="0"
         style="stop-color:#000000;stop-opacity:0"
         id="stop3390" />
      <stop
         offset="1"
         style="stop-color:#000000;stop-opacity:0.37113401"
         id="stop3392" />
    </linearGradient>
    <linearGradient
       gradientTransform="matrix(0.749107,0,0,0.749107,-35.459862,91.44108)"
       gradientUnits="userSpaceOnUse"
       xlink:href="#linearGradient3388"
       id="linearGradient4416"
       y2="183.9644"
       x2="490.72305"
       y1="237.72447"
       x1="490.72305" />
  </defs>
  <flowRoot
     xml:space="preserve"
     id="flowRoot4702"
     style="font-style:normal;font-weight:normal;font-size:40px;line-height:1.25;font-family:sans-serif;letter-spacing:0px;word-spacing:0px;fill:#000000;fill-opacity:1;stroke:none"><flowRegion
       id="flowRegion4704"><rect
         id="rect4706"
         width="87.745667"
         height="136.99422"
         x="144.62428"
         y="-53.121387" /></flowRegion><flowPara
       id="flowPara4708"></flowPara></flowRoot>  <g
     inkscape:label="Layer 1"
     id="layer1"
     transform="matrix(0.07213116,0,0,0.07213116,7.6654241,-3.012264)">
    <g
       transform="matrix(2.7186,-1.8786,1.8786,2.7186,-1824.6,-395.8)"
       id="g4220">
      <path
         d="m 426.37,544.22 12.05,8.32 c -5.85,4.35 -6.92,6.66 -8.54,12.37 l -94.29,136.87 c -10.15,14.7 -15.18,20.55 -27.69,27.21 1.75,-13.73 5.09,-20.26 15.63,-35.53 l 94.3,-136.87 c 4.6,-3.41 6.44,-4.96 8.54,-12.37 z"
         style="fill:#ffffff;stroke:#000000;stroke-width:1.56379998;stroke-linejoin:round"
         sodipodi:nodetypes="cccccccc"
         id="path4222"
         inkscape:connector-curvature="0" />
      <path
         d="M 308.14,728.98 420.17,566.7"
         style="fill:#ffffff;fill-rule:evenodd;stroke:#000000;stroke-width:1.56379998"
         id="path4224"
         inkscape:connector-curvature="0" />
      <path
         d="m 462.39,490.29 c 3.24,-0.76 8.17,2.37 8.64,2.67 0.49,0.3 4.91,3.75 5.25,7.12 -0.31,2.85 -9.53,8.83 -11.55,9.99 -2.56,-4.05 -2.71,-4.28 -7.47,-5.41 0.25,-1.95 2.08,-12.64 5.13,-14.37 z"
         style="fill:#ffffff;stroke:#000000;stroke-width:1.56379998;stroke-linejoin:round"
         sodipodi:nodetypes="cccccc"
         id="path4226"
         inkscape:connector-curvature="0" />
      <path
         d="m 429.68,542.03 c 2.77,4.23 7.3,6.33 10.15,5.78 l 25.16,-37.69 c -1.43,-3.7 -4.54,-5.46 -7.94,-5.65 z"
         style="fill:#ffffff;fill-rule:evenodd;stroke:#000000;stroke-width:1.5"
         sodipodi:nodetypes="ccccc"
         id="path4228"
         inkscape:connector-curvature="0" />
      <path
         d="m 415.08,560.46 c 2.06,1.79 4.53,4.23 4.97,6.41 2.35,-0.31 5,0.93 7.15,1.96"
         style="fill:#ffffff;fill-rule:evenodd;stroke:#000000;stroke-width:1.56379998"
         sodipodi:nodetypes="ccc"
         id="path4230"
         inkscape:connector-curvature="0" />
      <path
         d="m 430.3,542.45 c 2.84,4.33 4.54,5.43 9.53,6.49 7.16,4.95 15.58,19.65 14.01,20.43 l -8.91,1.7 c 0.28,-9.72 -5.71,-19.9 -15.25,-17.55 -1.06,-9.42 -12.71,-11.76 -23.24,-9.04 l -0.76,-8.96 c 0.17,-1.26 17.57,2.07 24.62,6.93 z m -24.57,-7.12 c 12.38,-0.39 19.09,1.53 24.55,5.29 M 454,568.35 c -4.03,-11.7 -8.21,-17.3 -13.66,-21.07"
         style="fill:#ffffff;stroke:#000000;stroke-width:1.56379998;stroke-linejoin:round"
         id="path4232"
         inkscape:connector-curvature="0" />
      <path
         d="m 428.95,541.23 c -0.14,-0.13 -0.31,-0.2 -0.48,-0.28 -0.14,-0.09 -0.29,-0.13 -0.45,-0.19 -0.15,-0.07 -0.28,-0.16 -0.42,-0.25 -0.16,-0.1 -0.31,-0.21 -0.46,-0.32 -0.17,-0.11 -0.33,-0.22 -0.47,-0.36 -0.15,-0.15 -0.32,-0.28 -0.49,-0.4 -0.16,-0.12 -0.3,-0.27 -0.45,-0.4 -0.13,-0.13 -0.3,-0.2 -0.46,-0.28 -0.18,-0.06 -0.37,-0.09 -0.54,-0.17 -0.18,-0.09 -0.38,-0.11 -0.58,-0.12 -0.18,-0.04 -0.37,-0.07 -0.55,-0.12 -0.16,-0.08 -0.33,-0.13 -0.48,-0.2 -0.18,-0.03 -0.35,-0.09 -0.53,-0.14 -0.09,-0.01 -0.17,-0.06 -0.26,-0.09 -0.08,-0.03 -0.16,-0.04 -0.24,-0.07 -0.16,-0.09 -0.34,-0.15 -0.51,-0.23 -0.16,-0.11 -0.34,-0.14 -0.52,-0.19 -0.2,-0.05 -0.39,-0.13 -0.59,-0.2 -0.18,-0.06 -0.36,-0.11 -0.53,-0.2 -0.21,-0.04 -0.41,-0.07 -0.62,-0.14 -0.16,-0.06 -0.32,-0.1 -0.48,-0.18 -0.15,-0.02 -0.27,-0.11 -0.42,-0.11 -0.17,0 -0.3,-0.1 -0.45,-0.14 -0.18,-0.06 -0.35,-0.1 -0.53,-0.15 -1.09,-0.04 4.32,0.31 -0.27,-0.02 -0.39,-0.03 0.79,0.07 1.19,0.1 0.05,0.01 -0.12,0 -0.18,-0.01 -0.02,0.01 -0.05,0.01 -0.08,0.01 -0.45,-0.04 -0.9,-0.07 -1.35,-0.11 -0.03,0 -0.05,-0.02 -0.08,-0.02 -0.08,-0.02 -0.16,-0.04 -0.24,-0.04 -0.02,-0.01 -0.1,-0.02 -0.07,-0.01 0.4,0.03 0.81,0.06 1.21,0.1 h -0.07 c -0.24,-0.02 -1.04,-0.04 -1.51,-0.14 3.18,0.27 -0.1,0 -0.15,0 -0.07,-0.01 -0.23,-0.06 -0.3,-0.09 -0.08,-0.03 -0.16,-0.04 -0.24,-0.05 l 1.3,-0.09 c 0.08,0.02 0.16,0.05 0.23,0.07 0.08,0.02 0.16,0.04 0.24,0.05 0.02,0.01 0.1,0.01 0.07,0.01 -1.23,-0.1 -2.09,-0.17 0.15,0.01 0.11,0.02 0.16,0.02 0.16,0.02 -2.6,-0.19 -0.49,-0.05 0.28,0.02 0.08,0.02 0.16,0.04 0.24,0.05 0.02,0.01 0.1,0.01 0.07,0.01 -1.28,-0.09 -1.6,-0.1 -1.12,-0.09 0.46,-0.04 1.45,0.1 1.55,0.11 0.39,0.03 -1.58,-0.13 -1.19,-0.09 1.48,0.13 0.92,0 1.46,0.12 0.17,0.05 0.35,0.1 0.52,0.16 0.15,0.06 0.3,0.11 0.46,0.12 0.14,0.04 0.28,0.09 0.42,0.15 0.16,0.06 0.32,0.1 0.48,0.16 0.2,0.06 0.42,0.07 0.61,0.16 0.18,0.07 0.36,0.12 0.53,0.18 0.2,0.07 0.39,0.15 0.6,0.2 0.18,0.05 0.35,0.11 0.51,0.2 0.18,0.08 0.35,0.15 0.52,0.22 0.17,0.05 0.33,0.11 0.5,0.16 0.17,0.05 0.36,0.08 0.53,0.15 0.15,0.07 0.31,0.13 0.47,0.18 0.19,0.04 0.37,0.08 0.55,0.1 0.2,0.03 0.4,0.07 0.58,0.16 0.18,0.06 0.38,0.09 0.55,0.18 0.17,0.08 0.32,0.18 0.46,0.31 0.14,0.13 0.28,0.28 0.44,0.39 0.17,0.13 0.34,0.27 0.5,0.42 0.14,0.13 0.3,0.23 0.46,0.34 0.15,0.11 0.31,0.21 0.47,0.32 0.13,0.08 0.27,0.16 0.42,0.22 0.16,0.05 0.3,0.13 0.44,0.2 0.18,0.09 0.34,0.19 0.5,0.3 z"
         style="fill:#ffffff;stroke:#000000;stroke-width:1.56379998;stroke-linejoin:round"
         id="path4234"
         inkscape:connector-curvature="0" />
      <path
         d="m 440.46,548.01 c 0.1,0.1 0.21,0.18 0.32,0.26 0.09,0.08 0.18,0.16 0.27,0.23 0.08,0.07 0.18,0.13 0.25,0.21 0.06,0.08 0.13,0.15 0.2,0.22 0.06,0.06 0.13,0.13 0.2,0.18 0.07,0.06 0.14,0.11 0.21,0.17 0.05,0.07 0.13,0.11 0.19,0.18 0.04,0.05 0.09,0.08 0.13,0.12 0.03,0.03 0.05,0.07 0.08,0.1 0.07,0.09 0.14,0.18 0.22,0.26 0.06,0.08 0.14,0.15 0.21,0.22 0.08,0.08 0.13,0.17 0.2,0.26 0.07,0.09 0.14,0.18 0.22,0.27 0.09,0.07 0.15,0.18 0.22,0.27 0.07,0.09 0.14,0.19 0.22,0.28 0.05,0.08 0.13,0.13 0.2,0.19 0.09,0.05 0.16,0.12 0.23,0.19 0.07,0.07 0.15,0.12 0.23,0.18 0.08,0.06 0.16,0.11 0.25,0.15 0.09,0.04 0.17,0.1 0.26,0.15 0.08,0.05 0.16,0.11 0.24,0.17 l 0.27,0.18 c 0.1,0.07 0.19,0.13 0.29,0.2 0.09,0.07 0.19,0.13 0.29,0.2 0.08,0.06 0.16,0.11 0.24,0.17 0.09,0.06 0.17,0.14 0.25,0.21 0.08,0.1 0.16,0.2 0.23,0.3 0.05,0.1 0.14,0.16 0.21,0.24 0.07,0.09 0.13,0.19 0.18,0.29 0.06,0.12 0.11,0.26 0.16,0.39 0.04,0.13 0.09,0.26 0.14,0.39 0.04,0.15 0.1,0.28 0.17,0.42 0.04,0.09 0.08,0.18 0.13,0.27 0.05,0.1 0.12,0.19 0.16,0.28 0.05,0.12 0.12,0.21 0.19,0.31 0.1,0.12 0.15,0.25 0.24,0.36 0.08,0.12 0.17,0.23 0.27,0.32 0.08,0.09 0.14,0.19 0.21,0.28 0.06,0.09 0.14,0.17 0.22,0.25 0.07,0.08 0.15,0.14 0.21,0.21 0.04,0.07 0.08,0.14 0.13,0.21 l -0.65,-0.01 c -0.04,-0.06 -0.08,-0.14 -0.13,-0.2 -0.07,-0.07 -0.13,-0.14 -0.2,-0.21 -0.08,-0.08 -0.16,-0.16 -0.23,-0.26 -0.06,-0.09 -0.12,-0.18 -0.2,-0.26 -0.1,-0.11 -0.19,-0.22 -0.28,-0.33 -0.08,-0.12 -0.13,-0.25 -0.23,-0.36 -0.07,-0.1 -0.14,-0.21 -0.19,-0.32 -0.05,-0.1 -0.12,-0.19 -0.16,-0.28 -0.05,-0.09 -0.09,-0.19 -0.13,-0.28 -0.07,-0.14 -0.12,-0.28 -0.17,-0.42 -0.05,-0.13 -0.11,-0.26 -0.14,-0.39 -0.05,-0.14 -0.1,-0.27 -0.17,-0.39 -0.05,-0.09 -0.1,-0.19 -0.17,-0.27 -0.08,-0.07 -0.16,-0.15 -0.22,-0.24 -0.07,-0.11 -0.14,-0.21 -0.23,-0.29 -0.08,-0.07 -0.15,-0.15 -0.24,-0.2 -0.08,-0.06 -0.17,-0.12 -0.25,-0.17 -0.09,-0.07 -0.19,-0.14 -0.29,-0.2 -0.09,-0.07 -0.19,-0.14 -0.29,-0.2 -0.09,-0.06 -0.17,-0.13 -0.26,-0.19 -0.08,-0.05 -0.17,-0.11 -0.25,-0.16 -0.08,-0.05 -0.17,-0.1 -0.26,-0.14 -0.09,-0.05 -0.17,-0.11 -0.24,-0.16 -0.08,-0.06 -0.16,-0.12 -0.24,-0.19 -0.07,-0.07 -0.15,-0.13 -0.23,-0.19 -0.07,-0.06 -0.14,-0.12 -0.2,-0.2 -0.07,-0.1 -0.14,-0.19 -0.22,-0.28 -0.06,-0.1 -0.13,-0.19 -0.22,-0.28 -0.07,-0.08 -0.15,-0.17 -0.21,-0.27 -0.07,-0.08 -0.13,-0.17 -0.21,-0.25 -0.07,-0.07 -0.14,-0.14 -0.21,-0.22 -0.08,-0.08 -0.15,-0.17 -0.22,-0.26 -0.06,-0.08 -0.14,-0.14 -0.21,-0.22 -0.07,-0.05 -0.13,-0.11 -0.19,-0.17 -0.07,-0.06 -0.15,-0.11 -0.21,-0.17 -0.07,-0.06 -0.13,-0.12 -0.19,-0.18 -0.08,-0.07 -0.14,-0.15 -0.21,-0.23 -0.07,-0.07 -0.17,-0.13 -0.25,-0.2 -0.09,-0.07 -0.17,-0.15 -0.25,-0.22 -0.12,-0.09 -0.24,-0.18 -0.35,-0.28 z"
         style="fill:#ffffff;stroke:#000000;stroke-width:1.56379998;stroke-linejoin:round"
         id="path4236"
         inkscape:connector-curvature="0" />
      <path
         d="m 432.49,539.68 c 0.14,0.11 0.29,0.22 0.44,0.3 0.05,0.03 0.1,0.05 0.15,0.07 0.33,0.15 0.67,0.29 0.99,0.45 0.07,0.03 0.13,0.06 0.2,0.09 0.13,0.05 0.35,0.13 0.48,0.18 0.31,0.12 0.61,0.23 0.92,0.34 0.77,0.27 1.55,0.5 2.32,0.77 0.59,0.17 1.16,0.39 1.74,0.58 0.26,0.09 0.52,0.17 0.77,0.26 0.38,0.14 0.78,0.24 1.16,0.37 -1.59,-0.44 -0.74,-0.18 -0.37,-0.13 0.08,0.02 0.21,0.03 0.3,0.03 0.11,0.02 0.22,0.01 0.33,0.01 l 0.92,0.38 c -0.11,0 -0.23,0 -0.35,-0.01 -0.22,-0.02 -0.07,-0.01 -0.31,-0.03 -0.05,0 -0.1,0 -0.15,-0.01 -0.05,-0.01 -0.09,-0.02 -0.14,-0.04 -0.77,-0.17 2.06,0.54 -1.21,-0.3 -0.35,-0.11 -0.7,-0.23 -1.04,-0.36 -0.83,-0.29 -1.65,-0.57 -2.49,-0.84 -0.78,-0.27 -1.57,-0.51 -2.36,-0.78 -0.56,-0.19 -1.12,-0.38 -1.66,-0.62 -0.34,-0.16 -0.67,-0.3 -1.01,-0.45 -0.05,-0.03 -0.11,-0.05 -0.16,-0.08 -0.17,-0.09 -0.33,-0.22 -0.49,-0.31 z"
         style="fill:#ffffff;stroke:#000000;stroke-width:1.56379998;stroke-linejoin:round"
         id="path4238"
         inkscape:connector-curvature="0" />
      <path
         d="m 434.98,536.33 c 0.14,0.11 0.28,0.22 0.44,0.3 0.04,0.03 0.1,0.05 0.15,0.07 0.33,0.15 0.66,0.29 0.99,0.45 0.06,0.03 0.13,0.06 0.19,0.09 0.13,0.06 0.36,0.14 0.49,0.18 0.3,0.12 0.6,0.23 0.91,0.34 0.77,0.27 1.55,0.5 2.32,0.77 0.59,0.18 1.16,0.39 1.74,0.58 0.26,0.09 0.52,0.17 0.78,0.26 0.38,0.14 0.77,0.24 1.15,0.37 -1.59,-0.43 -0.73,-0.18 -0.37,-0.12 0.09,0.01 0.22,0.02 0.3,0.03 0.11,0.01 0.22,0.01 0.33,0 l 0.93,0.38 c -0.12,0 -0.24,0 -0.36,-0.01 -0.22,-0.02 -0.07,-0.01 -0.3,-0.03 -0.05,0 -0.11,0 -0.16,-0.01 -0.04,-0.01 -0.09,-0.02 -0.13,-0.03 -0.78,-0.18 2.05,0.53 -1.22,-0.31 -0.35,-0.11 -0.7,-0.23 -1.04,-0.36 -0.82,-0.29 -1.65,-0.57 -2.48,-0.84 -0.79,-0.27 -1.58,-0.5 -2.36,-0.78 -0.56,-0.19 -1.13,-0.38 -1.67,-0.62 -0.33,-0.16 -0.67,-0.3 -1,-0.45 -0.06,-0.03 -0.12,-0.05 -0.17,-0.08 -0.17,-0.09 -0.32,-0.21 -0.49,-0.31 z"
         style="fill:#ffffff;stroke:#000000;stroke-width:1.56379998;stroke-linejoin:round"
         id="path4240"
         inkscape:connector-curvature="0" />
      <path
         d="m 437.24,533.24 c 0.14,0.1 0.28,0.2 0.43,0.29 0.04,0.02 0.09,0.04 0.14,0.06 0.32,0.14 0.64,0.28 0.95,0.43 0.07,0.03 0.13,0.06 0.19,0.09 0.13,0.05 0.34,0.13 0.47,0.18 0.29,0.1 0.58,0.21 0.88,0.31 0.74,0.26 1.49,0.49 2.23,0.75 0.56,0.17 1.11,0.37 1.67,0.56 l 0.75,0.24 c 0.36,0.14 0.74,0.24 1.11,0.36 -1.53,-0.42 -0.71,-0.17 -0.36,-0.12 0.08,0.01 0.21,0.02 0.29,0.03 0.1,0.01 0.21,0.01 0.31,0.01 l 0.9,0.36 c -0.12,0 -0.23,0 -0.34,-0.01 -0.22,-0.02 -0.08,0 -0.3,-0.02 -0.05,-0.01 -0.1,-0.01 -0.15,-0.02 -0.04,-0.01 -0.08,-0.02 -0.13,-0.03 -0.75,-0.17 1.98,0.52 -1.17,-0.3 -0.33,-0.1 -0.67,-0.22 -1,-0.34 -0.79,-0.28 -1.58,-0.55 -2.38,-0.81 -0.76,-0.26 -1.52,-0.48 -2.27,-0.74 -0.54,-0.19 -1.09,-0.37 -1.61,-0.61 l -0.96,-0.42 c -0.05,-0.03 -0.11,-0.05 -0.16,-0.08 -0.16,-0.09 -0.31,-0.21 -0.47,-0.3 z"
         style="fill:#ffffff;stroke:#000000;stroke-width:1.50329995;stroke-linejoin:round"
         id="path4242"
         inkscape:connector-curvature="0" />
      <path
         d="m 439.69,530.2 c 0.13,0.09 0.26,0.2 0.41,0.27 0.04,0.02 0.09,0.04 0.14,0.06 0.3,0.13 0.61,0.26 0.91,0.39 0.06,0.03 0.12,0.06 0.19,0.09 0.12,0.05 0.33,0.12 0.45,0.16 0.28,0.1 0.56,0.19 0.85,0.29 0.71,0.23 1.44,0.42 2.16,0.66 0.54,0.15 1.08,0.33 1.62,0.5 0.24,0.07 0.48,0.14 0.72,0.21 0.35,0.13 0.72,0.21 1.08,0.32 -1.49,-0.36 -0.69,-0.14 -0.35,-0.11 0.08,0.01 0.2,0.02 0.28,0.02 0.1,0.01 0.2,0 0.31,0 l 0.86,0.33 c -0.11,0 -0.22,0.01 -0.33,0 -0.21,-0.01 -0.07,0 -0.29,-0.01 -0.05,-0.01 -0.1,0 -0.15,-0.01 l -0.12,-0.03 c -0.73,-0.14 1.91,0.45 -1.14,-0.25 -0.33,-0.09 -0.65,-0.2 -0.97,-0.31 -0.77,-0.25 -1.53,-0.49 -2.31,-0.72 -0.73,-0.23 -1.47,-0.43 -2.2,-0.66 -0.52,-0.16 -1.04,-0.33 -1.55,-0.54 -0.3,-0.14 -0.62,-0.26 -0.92,-0.4 -0.06,-0.02 -0.11,-0.04 -0.16,-0.07 -0.16,-0.08 -0.29,-0.2 -0.45,-0.28 z"
         style="fill:#ffffff;stroke:#000000;stroke-width:1.56379998;stroke-linejoin:round"
         id="path4244"
         inkscape:connector-curvature="0" />
      <path
         d="m 442.17,526.84 c 0.13,0.09 0.26,0.19 0.4,0.27 0.05,0.02 0.1,0.04 0.14,0.06 0.31,0.13 0.62,0.25 0.92,0.39 l 0.18,0.09 c 0.12,0.05 0.33,0.12 0.45,0.16 0.29,0.1 0.57,0.19 0.85,0.29 0.72,0.23 1.45,0.42 2.17,0.65 0.54,0.16 1.07,0.34 1.61,0.51 0.24,0.07 0.48,0.14 0.72,0.21 0.36,0.13 0.72,0.21 1.08,0.32 -1.48,-0.36 -0.69,-0.14 -0.34,-0.11 0.07,0.01 0.2,0.02 0.28,0.02 0.1,0.01 0.2,0 0.3,0 l 0.87,0.33 c -0.11,0 -0.23,0.01 -0.34,0 -0.21,-0.01 -0.07,0 -0.28,-0.01 -0.05,-0.01 -0.1,-0.01 -0.15,-0.01 -0.04,-0.01 -0.09,-0.02 -0.13,-0.03 -0.73,-0.14 1.92,0.45 -1.13,-0.25 -0.33,-0.09 -0.65,-0.2 -0.97,-0.31 -0.77,-0.25 -1.54,-0.49 -2.31,-0.72 -0.73,-0.23 -1.47,-0.43 -2.2,-0.66 -0.52,-0.16 -1.05,-0.33 -1.55,-0.54 -0.31,-0.14 -0.62,-0.26 -0.93,-0.4 -0.05,-0.02 -0.1,-0.04 -0.15,-0.07 -0.16,-0.08 -0.3,-0.2 -0.45,-0.29 z"
         style="fill:#ffffff;stroke:#000000;stroke-width:1.56379998;stroke-linejoin:round"
         id="path4246"
         inkscape:connector-curvature="0" />
      <path
         d="m 444.16,523.53 c 0.12,0.1 0.25,0.2 0.4,0.28 0.04,0.02 0.09,0.04 0.14,0.06 0.31,0.13 0.61,0.25 0.91,0.39 0.07,0.03 0.13,0.06 0.19,0.08 0.12,0.05 0.33,0.12 0.45,0.17 0.28,0.09 0.56,0.19 0.85,0.28 0.71,0.24 1.44,0.43 2.16,0.66 0.55,0.15 1.08,0.34 1.62,0.5 0.24,0.08 0.48,0.15 0.72,0.22 0.35,0.12 0.72,0.21 1.08,0.31 -1.49,-0.35 -0.69,-0.13 -0.35,-0.1 0.08,0.01 0.2,0.01 0.28,0.02 0.1,0.01 0.21,0 0.31,-0.01 l 0.86,0.33 c -0.11,0.01 -0.22,0.02 -0.33,0.01 -0.21,-0.01 -0.07,0 -0.29,-0.02 h -0.15 l -0.12,-0.03 c -0.73,-0.14 1.92,0.44 -1.14,-0.25 -0.33,-0.1 -0.65,-0.2 -0.97,-0.31 -0.76,-0.25 -1.53,-0.49 -2.31,-0.72 -0.73,-0.23 -1.47,-0.43 -2.19,-0.66 -0.53,-0.17 -1.05,-0.33 -1.55,-0.55 l -0.93,-0.39 c -0.05,-0.02 -0.11,-0.05 -0.16,-0.07 -0.15,-0.09 -0.29,-0.2 -0.45,-0.29 z"
         style="fill:#ffffff;stroke:#000000;stroke-width:1.56379998;stroke-linejoin:round"
         id="path4248"
         inkscape:connector-curvature="0" />
      <path
         d="m 446.93,520.22 c 0.12,0.09 0.24,0.19 0.37,0.25 0.04,0.03 0.09,0.04 0.13,0.06 0.29,0.12 0.58,0.23 0.87,0.35 0.05,0.03 0.11,0.06 0.17,0.08 0.11,0.04 0.31,0.11 0.42,0.14 0.27,0.09 0.53,0.18 0.8,0.26 0.68,0.2 1.37,0.37 2.04,0.57 0.52,0.13 1.02,0.3 1.53,0.44 0.23,0.06 0.46,0.13 0.68,0.19 0.34,0.11 0.68,0.18 1.02,0.27 -1.41,-0.3 -0.65,-0.11 -0.33,-0.09 0.08,0.01 0.2,0.01 0.27,0.01 0.1,0 0.2,-0.01 0.3,-0.01 l 0.81,0.29 c -0.11,0.01 -0.22,0.02 -0.32,0.02 -0.2,-0.01 -0.07,0 -0.27,-0.01 h -0.14 c -0.04,-0.01 -0.08,-0.02 -0.12,-0.02 -0.69,-0.12 1.81,0.37 -1.08,-0.22 -0.31,-0.08 -0.61,-0.17 -0.91,-0.27 -0.73,-0.21 -1.45,-0.43 -2.18,-0.62 -0.69,-0.21 -1.39,-0.38 -2.08,-0.58 -0.49,-0.14 -0.99,-0.29 -1.46,-0.48 -0.29,-0.13 -0.58,-0.24 -0.87,-0.36 -0.05,-0.02 -0.1,-0.04 -0.15,-0.07 -0.15,-0.07 -0.27,-0.18 -0.42,-0.26 z"
         style="fill:#ffffff;stroke:#000000;stroke-width:1.56379998;stroke-linejoin:round"
         id="path4250"
         inkscape:connector-curvature="0" />
      <path
         d="m 449.4,516.85 c 0.12,0.09 0.24,0.19 0.37,0.26 0.05,0.02 0.09,0.03 0.13,0.05 0.29,0.12 0.58,0.23 0.87,0.36 0.05,0.02 0.11,0.05 0.17,0.07 0.11,0.05 0.31,0.11 0.42,0.14 0.27,0.09 0.54,0.18 0.8,0.26 0.68,0.2 1.37,0.37 2.05,0.57 0.51,0.13 1.01,0.3 1.52,0.44 0.23,0.07 0.46,0.13 0.68,0.19 0.34,0.11 0.68,0.18 1.02,0.27 -1.4,-0.3 -0.65,-0.11 -0.32,-0.09 0.07,0.01 0.19,0.01 0.26,0.01 0.1,0 0.2,0 0.3,-0.01 l 0.81,0.29 c -0.11,0.01 -0.21,0.02 -0.32,0.02 -0.2,-0.01 -0.07,0 -0.27,-0.01 h -0.14 c -0.04,-0.01 -0.08,-0.02 -0.12,-0.02 -0.69,-0.12 1.81,0.37 -1.08,-0.21 -0.31,-0.09 -0.61,-0.17 -0.91,-0.28 -0.73,-0.21 -1.45,-0.43 -2.18,-0.62 -0.69,-0.21 -1.39,-0.38 -2.08,-0.58 -0.49,-0.14 -0.99,-0.29 -1.46,-0.48 -0.29,-0.13 -0.58,-0.24 -0.87,-0.36 l -0.15,-0.06 c -0.14,-0.08 -0.27,-0.19 -0.42,-0.27 z"
         style="fill:#ffffff;stroke:#000000;stroke-width:1.56379998;stroke-linejoin:round"
         id="path4252"
         inkscape:connector-curvature="0" />
      <path
         d="m 451.4,513.55 c 0.12,0.1 0.24,0.19 0.38,0.26 0.04,0.02 0.08,0.04 0.13,0.06 0.28,0.11 0.57,0.22 0.86,0.35 0.06,0.02 0.11,0.05 0.17,0.07 0.11,0.05 0.31,0.11 0.42,0.15 0.27,0.08 0.54,0.17 0.8,0.25 0.68,0.21 1.37,0.37 2.05,0.58 0.51,0.13 1.01,0.29 1.52,0.43 0.23,0.07 0.46,0.13 0.69,0.19 0.33,0.11 0.68,0.18 1.01,0.28 -1.4,-0.3 -0.65,-0.12 -0.32,-0.09 h 0.26 c 0.1,0.01 0.2,0 0.3,-0.01 l 0.81,0.29 c -0.11,0.01 -0.21,0.03 -0.32,0.02 h -0.27 c -0.05,-0.01 -0.1,0 -0.14,-0.01 -0.04,0 -0.08,-0.01 -0.12,-0.02 -0.69,-0.12 1.82,0.37 -1.08,-0.21 -0.31,-0.08 -0.61,-0.17 -0.91,-0.27 -0.72,-0.22 -1.45,-0.43 -2.18,-0.63 -0.69,-0.2 -1.39,-0.37 -2.08,-0.58 -0.49,-0.14 -0.99,-0.28 -1.46,-0.48 -0.29,-0.12 -0.58,-0.23 -0.87,-0.35 -0.05,-0.03 -0.1,-0.05 -0.15,-0.07 -0.14,-0.08 -0.27,-0.18 -0.42,-0.26 z"
         style="fill:#ffffff;stroke:#000000;stroke-width:1.56379998;stroke-linejoin:round"
         id="path4254"
         inkscape:connector-curvature="0" />
      <path
         d="m 453.7,510.41 c 0.12,0.09 0.24,0.18 0.38,0.25 0.04,0.02 0.08,0.04 0.13,0.06 0.29,0.11 0.58,0.23 0.86,0.35 0.06,0.03 0.11,0.05 0.17,0.08 0.12,0.04 0.31,0.1 0.42,0.14 0.27,0.09 0.54,0.17 0.81,0.25 0.67,0.21 1.36,0.38 2.04,0.58 0.51,0.13 1.02,0.29 1.53,0.44 0.22,0.06 0.45,0.12 0.68,0.19 0.33,0.11 0.68,0.18 1.02,0.27 -1.41,-0.3 -0.66,-0.11 -0.33,-0.09 0.07,0.01 0.19,0.01 0.26,0.01 0.1,0 0.2,-0.01 0.3,-0.02 l 0.81,0.3 c -0.1,0.01 -0.21,0.02 -0.32,0.01 h -0.27 -0.14 l -0.12,-0.03 c -0.69,-0.11 1.82,0.37 -1.08,-0.21 -0.3,-0.08 -0.61,-0.17 -0.91,-0.27 -0.72,-0.22 -1.45,-0.43 -2.18,-0.63 -0.69,-0.2 -1.39,-0.37 -2.08,-0.57 -0.49,-0.15 -0.98,-0.29 -1.46,-0.49 -0.29,-0.12 -0.58,-0.23 -0.87,-0.35 -0.05,-0.02 -0.1,-0.04 -0.15,-0.07 -0.14,-0.07 -0.27,-0.18 -0.41,-0.26 z"
         style="fill:#ffffff;stroke:#000000;stroke-width:1.56379998;stroke-linejoin:round"
         id="path4256"
         inkscape:connector-curvature="0" />
      <path
         d="m 456.17,507.04 c 0.12,0.09 0.24,0.18 0.38,0.25 0.04,0.02 0.09,0.04 0.13,0.06 0.29,0.11 0.58,0.23 0.86,0.35 0.06,0.03 0.12,0.06 0.17,0.08 0.12,0.04 0.31,0.1 0.43,0.14 0.26,0.09 0.53,0.17 0.8,0.25 0.67,0.21 1.36,0.38 2.04,0.58 0.52,0.13 1.02,0.3 1.53,0.44 0.22,0.06 0.45,0.12 0.68,0.19 0.33,0.11 0.68,0.18 1.02,0.27 -1.41,-0.3 -0.66,-0.11 -0.33,-0.09 0.07,0.01 0.19,0.01 0.27,0.01 0.09,0 0.19,-0.01 0.29,-0.02 l 0.81,0.3 c -0.1,0.01 -0.21,0.02 -0.31,0.01 h -0.28 -0.14 l -0.12,-0.03 c -0.69,-0.11 1.82,0.38 -1.07,-0.21 -0.31,-0.08 -0.62,-0.17 -0.92,-0.27 -0.72,-0.21 -1.45,-0.43 -2.18,-0.62 -0.69,-0.21 -1.39,-0.38 -2.07,-0.58 -0.5,-0.15 -0.99,-0.29 -1.46,-0.48 -0.29,-0.13 -0.59,-0.24 -0.88,-0.36 -0.05,-0.02 -0.1,-0.04 -0.14,-0.07 -0.15,-0.07 -0.28,-0.18 -0.42,-0.26 z"
         style="fill:#ffffff;stroke:#000000;stroke-width:1.56379998;stroke-linejoin:round"
         id="path4258"
         inkscape:connector-curvature="0" />
      <path
         d="m 471.16,492.57 c -0.13,0.19 -0.27,0.39 -0.4,0.58 -0.11,0.16 -0.22,0.32 -0.33,0.49 -0.16,0.23 -0.32,0.45 -0.48,0.68 -0.14,0.21 -0.28,0.41 -0.42,0.62 -0.16,0.24 -0.33,0.47 -0.49,0.71 -0.17,0.24 -0.33,0.47 -0.49,0.71 -0.15,0.21 -0.3,0.43 -0.45,0.65 -0.14,0.2 -0.28,0.41 -0.42,0.61 -0.18,0.26 -0.36,0.52 -0.55,0.79 -0.14,0.2 -0.28,0.41 -0.42,0.62 -0.13,0.18 -0.26,0.37 -0.39,0.55 -0.13,0.19 -0.26,0.38 -0.39,0.58 -0.11,0.15 -0.22,0.31 -0.33,0.47 -0.1,0.14 -0.2,0.29 -0.3,0.43 -0.09,0.13 -0.18,0.27 -0.28,0.41 -0.1,0.15 -0.2,0.29 -0.31,0.44 -0.12,0.18 -0.24,0.36 -0.37,0.54 -0.1,0.14 -0.19,0.29 -0.29,0.43 -0.11,0.15 -0.21,0.31 -0.32,0.46 -0.08,0.12 -0.16,0.24 -0.24,0.35 -0.08,0.12 -0.16,0.23 -0.24,0.34 -0.06,0.1 -0.13,0.19 -0.19,0.29 -0.08,0.11 -0.16,0.23 -0.24,0.34 -0.08,0.11 -0.15,0.22 -0.23,0.33 -0.09,0.13 -0.17,0.25 -0.25,0.37 -0.08,0.11 -0.16,0.23 -0.24,0.34 -0.1,0.14 -0.19,0.27 -0.29,0.41 -0.03,0.06 -0.07,0.11 -0.11,0.17 l -0.35,0.36 0.12,-0.18 c 0.1,-0.13 0.19,-0.26 0.28,-0.39 0.08,-0.12 0.16,-0.23 0.24,-0.35 0.08,-0.12 0.17,-0.24 0.25,-0.36 0.08,-0.12 0.15,-0.23 0.23,-0.34 0.08,-0.11 0.16,-0.23 0.24,-0.34 0.06,-0.1 0.13,-0.19 0.19,-0.29 l 0.24,-0.33 0.24,-0.36 c 0.11,-0.15 0.22,-0.31 0.32,-0.46 0.1,-0.14 0.2,-0.29 0.3,-0.43 0.12,-0.18 0.25,-0.36 0.37,-0.54 0.1,-0.15 0.2,-0.29 0.31,-0.44 0.09,-0.14 0.19,-0.27 0.28,-0.41 0.1,-0.14 0.2,-0.29 0.3,-0.43 0.1,-0.16 0.21,-0.32 0.32,-0.48 0.14,-0.19 0.27,-0.38 0.4,-0.57 0.13,-0.18 0.25,-0.37 0.38,-0.55 0.15,-0.21 0.29,-0.42 0.44,-0.63 0.18,-0.26 0.36,-0.52 0.54,-0.78 0.14,-0.21 0.28,-0.41 0.42,-0.62 0.15,-0.21 0.3,-0.43 0.45,-0.65 0.16,-0.23 0.33,-0.47 0.49,-0.71 0.16,-0.23 0.32,-0.47 0.49,-0.71 0.14,-0.2 0.28,-0.41 0.43,-0.62 0.15,-0.22 0.3,-0.44 0.46,-0.67 0.11,-0.16 0.22,-0.32 0.33,-0.48 0.13,-0.2 0.27,-0.39 0.4,-0.58 z"
         style="fill:#ffffff;stroke:#000000;stroke-width:1.16400003;stroke-linejoin:round"
         id="path4260"
         inkscape:connector-curvature="0" />
      <path
         d="m 465.82,508.82 c 8.99,-7.55 9.85,-9.42 7.65,-11.98 -0.87,-1.02 -2.54,-3.31 -4.32,-1.32 l 1.84,-2.44 5.64,7.38 c -3.38,4.16 -5.84,5.14 -10.81,8.36 z"
         style="fill:#000000;stroke:#000000;stroke-width:0.764;stroke-linejoin:round"
         sodipodi:nodetypes="cscccc"
         id="path4262"
         inkscape:connector-curvature="0" />
    </g>
  </g>
  <path
     style="fill:#f44336;fill-opacity:1;fill-rule:evenodd;stroke:none;stroke-width:0.27530551;stroke-opacity:1"
     id="path2518"
     d="m 35.224613,20.09403 c -2.036399,4.992709 -3.264656,8.258527 -5.531919,13.102821 1.390116,1.473523 3.096418,3.189515 5.867448,5.127566 -2.979128,-1.225893 -5.011258,-2.456661 -6.529903,-3.733832 -2.901664,6.05477 -7.447739,14.679523 -16.673189,31.255779 7.250893,-4.186067 12.871657,-6.766822 18.10994,-7.75157 -0.224934,-0.967437 -0.352818,-2.013909 -0.344132,-3.105791 l 0.0086,-0.232288 c 0.115055,-4.645456 2.531617,-8.217812 5.394267,-7.975256 2.862651,0.242555 5.087758,4.207333 4.972706,8.852791 -0.02164,0.874128 -0.120237,1.71503 -0.292512,2.494957 5.181408,1.013576 10.74207,3.587723 17.894859,7.717157 -1.410393,-2.596627 -2.669288,-4.937295 -3.871486,-7.166546 -1.893658,-1.467712 -3.868838,-3.377944 -7.897826,-5.445887 2.769295,0.719579 4.752076,1.549783 6.297613,2.477749 C 40.405992,32.95442 39.416184,29.930451 35.224613,20.09403 Z"
     inkscape:connector-curvature="0" />
</svg>
